# xmcd
# Track frame offsets:
# 150
# 14043
# 29239
# 43840
# 59777
# 73955
# 87664
# 100458
# 112571
# 123086
# 132575
# 145284
# 158793
# 169677
# 185324
#
# Disc length: 2756 seconds
# Revision: 0
# Processed by: cddbd v1.5.1PL0 Copyright (c) Steve Scherf et al.
# Submitted via: VisiTrax 2.9.10.228 - For more info visit www.synapsa.com
#
DISCID=e40ac20f
DTITLE=Pride, Charley - CB90065
DYEAR=1900
DGENRE=Karaoke
TTITLE0=Crystal Chandeliers
TTITLE1=All I Have To Offer You Is Me
TTITLE2=I'll Be Leaving Alone
TTITLE3=Burgers and Fries
TTITLE4=Mountain Of Love
TTITLE5=Snakes Crawl At Night, The
TTITLE6=Wonder Could I Live There Anymore
TTITLE7=Does My Ring Hurt Your Finger
TTITLE8=Is Anybody Goin' To San Antone
TTITLE9=Kiss An Angel Good Morning
TTITLE10=She's Just An Old Love Turned Memory
TTITLE11=Night Games
TTITLE12=Why Baby Why
TTITLE13=Never Been So Loved
TTITLE14=You're So Good When You're Bad
EXTD=
EXTT0=
EXTT1=
EXTT2=
EXTT3=
EXTT4=
EXTT5=
EXTT6=
EXTT7=
EXTT8=
EXTT9=
EXTT10=
EXTT11=
EXTT12=
EXTT13=
EXTT14=
PLAYORDER=
